<mxfile host="app.diagrams.net" modified="2022-07-04T16:02:05.895Z" agent="5.0 (Windows NT 10.0; Win64; x64) AppleWebKit/537.36 (KHTML, like Gecko) Chrome/103.0.0.0 Safari/537.36" etag="EipwJWvzcmXEJpqcqcGd" version="20.0.4" type="github">
  <diagram id="6oL_8VTpbBomLau8wND0" name="Page-1">
    <mxGraphModel dx="808" dy="1218" grid="1" gridSize="10" guides="1" tooltips="1" connect="1" arrows="1" fold="1" page="1" pageScale="1" pageWidth="850" pageHeight="1100" math="0" shadow="0">
      <root>
        <mxCell id="0" />
        <mxCell id="1" parent="0" />
        <mxCell id="ZkR76AHLfHLsbN0Zm348-1" value="Scafold" style="rounded=0;whiteSpace=wrap;html=1;" vertex="1" parent="1">
          <mxGeometry x="365" y="160" width="120" height="60" as="geometry" />
        </mxCell>
        <mxCell id="ZkR76AHLfHLsbN0Zm348-2" value="Appbar" style="rounded=0;whiteSpace=wrap;html=1;" vertex="1" parent="1">
          <mxGeometry x="200" y="270" width="120" height="60" as="geometry" />
        </mxCell>
        <mxCell id="ZkR76AHLfHLsbN0Zm348-4" value="" style="endArrow=none;html=1;rounded=0;entryX=0;entryY=0.5;entryDx=0;entryDy=0;exitX=0.5;exitY=0;exitDx=0;exitDy=0;" edge="1" parent="1" source="ZkR76AHLfHLsbN0Zm348-2" target="ZkR76AHLfHLsbN0Zm348-1">
          <mxGeometry width="50" height="50" relative="1" as="geometry">
            <mxPoint x="350" y="440" as="sourcePoint" />
            <mxPoint x="400" y="390" as="targetPoint" />
          </mxGeometry>
        </mxCell>
        <mxCell id="ZkR76AHLfHLsbN0Zm348-5" value="tittle" style="rounded=0;whiteSpace=wrap;html=1;" vertex="1" parent="1">
          <mxGeometry x="200" y="360" width="120" height="60" as="geometry" />
        </mxCell>
        <mxCell id="ZkR76AHLfHLsbN0Zm348-6" value="" style="endArrow=none;html=1;rounded=0;entryX=0.5;entryY=1;entryDx=0;entryDy=0;exitX=0.5;exitY=0;exitDx=0;exitDy=0;" edge="1" parent="1" source="ZkR76AHLfHLsbN0Zm348-5" target="ZkR76AHLfHLsbN0Zm348-2">
          <mxGeometry width="50" height="50" relative="1" as="geometry">
            <mxPoint x="240" y="370" as="sourcePoint" />
            <mxPoint x="345" y="290" as="targetPoint" />
          </mxGeometry>
        </mxCell>
        <mxCell id="ZkR76AHLfHLsbN0Zm348-7" value="body" style="rounded=0;whiteSpace=wrap;html=1;" vertex="1" parent="1">
          <mxGeometry x="540" y="250" width="120" height="60" as="geometry" />
        </mxCell>
        <mxCell id="ZkR76AHLfHLsbN0Zm348-8" value="Consumer" style="rounded=0;whiteSpace=wrap;html=1;" vertex="1" parent="1">
          <mxGeometry x="520" y="390" width="120" height="60" as="geometry" />
        </mxCell>
        <mxCell id="ZkR76AHLfHLsbN0Zm348-9" value="" style="endArrow=none;html=1;rounded=0;entryX=0.5;entryY=1;entryDx=0;entryDy=0;exitX=0.5;exitY=0;exitDx=0;exitDy=0;" edge="1" parent="1" source="ZkR76AHLfHLsbN0Zm348-8" target="ZkR76AHLfHLsbN0Zm348-7">
          <mxGeometry width="50" height="50" relative="1" as="geometry">
            <mxPoint x="670" y="560" as="sourcePoint" />
            <mxPoint x="720" y="510" as="targetPoint" />
          </mxGeometry>
        </mxCell>
        <mxCell id="ZkR76AHLfHLsbN0Zm348-10" value="column" style="rounded=0;whiteSpace=wrap;html=1;" vertex="1" parent="1">
          <mxGeometry x="520" y="480" width="120" height="60" as="geometry" />
        </mxCell>
        <mxCell id="ZkR76AHLfHLsbN0Zm348-11" value="" style="endArrow=none;html=1;rounded=0;entryX=0.5;entryY=1;entryDx=0;entryDy=0;exitX=0.5;exitY=0;exitDx=0;exitDy=0;" edge="1" parent="1" source="ZkR76AHLfHLsbN0Zm348-10" target="ZkR76AHLfHLsbN0Zm348-8">
          <mxGeometry width="50" height="50" relative="1" as="geometry">
            <mxPoint x="560" y="490" as="sourcePoint" />
            <mxPoint x="665" y="410" as="targetPoint" />
          </mxGeometry>
        </mxCell>
        <mxCell id="ZkR76AHLfHLsbN0Zm348-12" value="" style="endArrow=none;html=1;rounded=0;entryX=0.5;entryY=0;entryDx=0;entryDy=0;exitX=1;exitY=0.5;exitDx=0;exitDy=0;" edge="1" parent="1" source="ZkR76AHLfHLsbN0Zm348-1" target="ZkR76AHLfHLsbN0Zm348-7">
          <mxGeometry width="50" height="50" relative="1" as="geometry">
            <mxPoint x="485" y="200" as="sourcePoint" />
            <mxPoint x="505" y="120" as="targetPoint" />
            <Array as="points">
              <mxPoint x="540" y="200" />
            </Array>
          </mxGeometry>
        </mxCell>
        <mxCell id="ZkR76AHLfHLsbN0Zm348-13" value="gambar" style="rounded=0;whiteSpace=wrap;html=1;" vertex="1" parent="1">
          <mxGeometry x="520" y="560" width="120" height="60" as="geometry" />
        </mxCell>
        <mxCell id="ZkR76AHLfHLsbN0Zm348-17" value="" style="edgeStyle=orthogonalEdgeStyle;rounded=0;orthogonalLoop=1;jettySize=auto;html=1;" edge="1" parent="1" source="ZkR76AHLfHLsbN0Zm348-14" target="ZkR76AHLfHLsbN0Zm348-16">
          <mxGeometry relative="1" as="geometry" />
        </mxCell>
        <mxCell id="ZkR76AHLfHLsbN0Zm348-14" value="text" style="rounded=0;whiteSpace=wrap;html=1;" vertex="1" parent="1">
          <mxGeometry x="520" y="650" width="120" height="60" as="geometry" />
        </mxCell>
        <mxCell id="ZkR76AHLfHLsbN0Zm348-15" value="" style="endArrow=none;html=1;rounded=0;entryX=0.5;entryY=1;entryDx=0;entryDy=0;exitX=0.5;exitY=0;exitDx=0;exitDy=0;" edge="1" parent="1" source="ZkR76AHLfHLsbN0Zm348-14" target="ZkR76AHLfHLsbN0Zm348-13">
          <mxGeometry width="50" height="50" relative="1" as="geometry">
            <mxPoint x="560" y="660" as="sourcePoint" />
            <mxPoint x="665" y="580" as="targetPoint" />
          </mxGeometry>
        </mxCell>
        <mxCell id="ZkR76AHLfHLsbN0Zm348-19" value="" style="edgeStyle=orthogonalEdgeStyle;rounded=0;orthogonalLoop=1;jettySize=auto;html=1;" edge="1" parent="1" source="ZkR76AHLfHLsbN0Zm348-16" target="ZkR76AHLfHLsbN0Zm348-18">
          <mxGeometry relative="1" as="geometry" />
        </mxCell>
        <mxCell id="ZkR76AHLfHLsbN0Zm348-16" value="text" style="rounded=0;whiteSpace=wrap;html=1;" vertex="1" parent="1">
          <mxGeometry x="520" y="760" width="120" height="60" as="geometry" />
        </mxCell>
        <mxCell id="ZkR76AHLfHLsbN0Zm348-18" value="text" style="rounded=0;whiteSpace=wrap;html=1;" vertex="1" parent="1">
          <mxGeometry x="520" y="880" width="120" height="60" as="geometry" />
        </mxCell>
      </root>
    </mxGraphModel>
  </diagram>
</mxfile>
